<svg xmlns="http://www.w3.org/2000/svg" viewBox="0 0 115 115" fill="none">
  <g id="bathroom">
    <path fill="#fff" d="M50.851 28.687l40.49 5.986a5.862 5.862 0 0 1 4.978 6.67l-.07.475-52.133-7.707.068-.465a5.86 5.86 0 0 1 6.655-4.94l.012-.019z"/>
    <path fill="#B9B1E7" d="M26.85 72a13.74 13.74 0 0 1 7.35 9.55 28.42 28.42 0 0 1 18 16.59 16.49 16.49 0 0 1 10.44 3.75A12.605 12.605 0 0 1 76 100.46a20.57 20.57 0 0 1 18.88-12.39 20.9 20.9 0 0 1 4 .39 10.81 10.81 0 0 1 5.77-3.46 14.23 14.23 0 0 0-14.59-12.91 16.37 16.37 0 0 0-23.35-4.78h-.12a21.53 21.53 0 0 0-20 2.83c-.37-.17-.75-.34-1.14-.48a15.25 15.25 0 0 0-8.24-.6 14.93 14.93 0 0 0-8.73-4.89A19.83 19.83 0 0 1 26.85 72z"/>
    <path fill="#fff" d="M70.24 25.94L74 18.8a9.6 9.6 0 0 1 8.49-5.12H107v4.38H83.13a5.89 5.89 0 0 0-5.21 3.14l-3 5.61-4.68-.87z"/>
    <path fill="#9315F6" d="M67.25 25.887l9.21 1.362a2.89 2.89 0 0 1 2.416 3.279l-.333 2.255-14.908-2.204.333-2.256a2.89 2.89 0 0 1 3.282-2.436zm24.1 8.793L85 34.09a5.86 5.86 0 0 1 2.55 5.73l-.07.47-.63-.11.06.09 9.32 1.54.07-.47a5.87 5.87 0 0 0-4.95-6.66z"/>
    <path stroke="#352157" stroke-linecap="round" stroke-linejoin="round" stroke-width="1.5" d="M67.25 25.887l9.21 1.362a2.89 2.89 0 0 1 2.416 3.279l-.333 2.255-14.908-2.204.333-2.256a2.89 2.89 0 0 1 3.282-2.436z"/>
    <path stroke="#352157" stroke-linecap="round" stroke-linejoin="round" stroke-width="1.5" d="M50.851 28.687l40.49 5.986a5.862 5.862 0 0 1 4.978 6.67l-.07.475-52.133-7.707.068-.465a5.86 5.86 0 0 1 6.655-4.94l.012-.019zM70.24 25.94L74 18.8a9.6 9.6 0 0 1 8.49-5.12H107"/>
    <path stroke="#352157" stroke-linecap="round" stroke-linejoin="round" stroke-width="1.5" d="M107 18.06H83.13a5.89 5.89 0 0 0-5.21 3.14l-3 5.61M40.2 77.09l3.21-21.9m1.16-7.84l1.88-12.86m5.49 28.79l3.34-22.73m-4.35 29.59l-3.04 20.71M63.65 49.7l1.82-12.41M60.1 73.86l2.69-18.3m-5.55 37.75l2-13.59m8.16 10.59l-1.45 9.89m2.42-16.49l2.29-15.59m3.76-25.57l-2.79 18.97m10.11-2.71l-2.46 16.77m3.44-23.44l1.77-12.06m-7.56 51.45l1.35-9.16M94 41.48l-.83 5.68m-3.98 27.09l-2.29 15.6m5.23-35.66l-1.87 12.78M107 84.93a10.829 10.829 0 0 0-8.14 3.68 20.58 20.58 0 0 0-22.86 12A12.639 12.639 0 0 0 62.72 102a16.42 16.42 0 0 0-10.44-3.76 28.44 28.44 0 0 0-18-16.59 13.799 13.799 0 0 0-7.34-9.55 20.12 20.12 0 0 0-18.52-28"/>
  </g>
</svg>
