<svg xmlns="http://www.w3.org/2000/svg" viewBox="0 0 115 115" fill="none">
  <g id="doors">
    <path d="M31.2 9.77h53.59v94.47H31.2V9.77z" fill="#B9B1E7" stroke="#352157" stroke-width="1.5" stroke-linecap="round" stroke-linejoin="round"/>
    <path d="M79.4 104.23H35.6V14.48h43.8" fill="#fff"/>
    <path d="M79.4 104.23H35.6V14.48h43.8" stroke="#352157" stroke-width="1.5" stroke-linecap="round" stroke-linejoin="round"/>
    <path d="M44.14 35.62h10.6v28.55h-10.6V35.62z" fill="#DFDBF7"/>
    <path d="M46.66 38.13h5.56v23.55h-5.56V38.13z" fill="#fff"/>
    <path d="M60.26 35.62h10.6v28.55h-10.6V35.62z" fill="#DFDBF7"/>
    <path d="M62.78 38.13h5.56v23.55h-5.56V38.13z" fill="#fff"/>
    <path d="M44.14 72.74h10.6v24.37h-10.6V72.74z" fill="#DFDBF7"/>
    <path d="M46.66 75.25h5.56v19.36h-5.56V75.25z" fill="#fff"/>
    <path d="M60.26 72.74h10.6v24.37h-10.6V72.74z" fill="#DFDBF7"/>
    <path d="M62.78 75.25h5.56v19.36h-5.56V75.25z" fill="#fff"/>
    <path d="M75.02 63.33a2.12 2.12 0 1 0 0-4.24 2.12 2.12 0 0 0 0 4.24zm-.26 8a3.09 3.09 0 1 0 0-6.18 3.09 3.09 0 0 0 0 6.18z" fill="#DFDBF7"/>
    <path d="M75.67 68.24a1 1 0 0 1-.92 1h-7a1 1 0 0 1-.92-1 1 1 0 0 1 .92-1h7a1 1 0 0 1 .92 1z" fill="#fff"/>
    <path d="M67.76 69.24a1 1 0 0 1-.92-1 1 1 0 0 1 .92-1h7" stroke="#352157" stroke-width="1.5" stroke-linecap="round" stroke-linejoin="round"/>
    <path d="M70.86 31.33H44.14v-9.14s4.18-3.1 13.36-3.1 13.36 3.1 13.36 3.1v9.14z" fill="#9315F6"/>
    <path d="M44.14 31.33v-9.14s4.18-3.1 13.36-3.1 13.36 3.1 13.36 3.1" stroke="#352157" stroke-width="1.5" stroke-linecap="round" stroke-linejoin="round"/>
    <path d="M67.28 28.6H47.72v-4.69S50.78 22 57.5 22c6.72 0 9.78 1.92 9.78 1.92v4.68z" fill="#fff" stroke="#352157" stroke-width="1.5" stroke-linecap="round" stroke-linejoin="round"/>
    <path d="M52.36 22.5v6.1m5.14-6.61v6.61-6.61zm5.02.51v6.1-6.1z" stroke="#352157" stroke-width="1.5" stroke-linecap="round" stroke-linejoin="round"/>
    <path d="M25.98 104.23h64.04-64.04z" fill="#fff"/>
    <path d="M25.98 104.23h64.04M54.73 35.62h-10.6v28.56m26.73-28.56H60.27v28.56m-5.54 8.56h-10.6v24.38m26.73-24.38H60.27v24.38" stroke="#352157" stroke-width="1.5" stroke-linecap="round" stroke-linejoin="round"/>
  </g>
</svg>
