<svg xmlns="http://www.w3.org/2000/svg" viewBox="0 0 115 115" fill="none">
  <g id="hot-tubs">
    <ellipse cx="57.5" cy="75" rx="45" ry="25" fill="#B9B1E7"/>
    <ellipse cx="57.5" cy="72" rx="40" ry="20" fill="#fff"/>
    <ellipse cx="57.5" cy="70" rx="35" ry="15" fill="#DFDBF7"/>
    <path stroke="#352157" stroke-width="1.5" d="M57.5 55c-19.33 0-35 6.72-35 15s15.67 15 35 15 35-6.72 35-15-15.67-15-35-15z"/>
    <circle cx="40" cy="65" r="3" fill="#9315F6"/>
    <circle cx="50" cy="62" r="3" fill="#9315F6"/>
    <circle cx="65" cy="62" r="3" fill="#9315F6"/>
    <circle cx="75" cy="65" r="3" fill="#9315F6"/>
    <path d="M30 85h55v10H30V85z" fill="#352157"/>
    <rect x="35" y="87" width="45" height="6" fill="#DFDBF7"/>
    <path d="M45 50c0-3 2-5 5-5s5 2 5 5c0 2-2 3-5 3s-5-1-5-3z" fill="#B9B1E7"/>
    <path d="M60 50c0-3 2-5 5-5s5 2 5 5c0 2-2 3-5 3s-5-1-5-3z" fill="#B9B1E7"/>
  </g>
</svg>
