<svg xmlns="http://www.w3.org/2000/svg" viewBox="0 0 115 115" fill="none">
  <g id="hvac">
    <path fill="#B9B1E7" d="M48.1 91.71l34.48-10.12L48.1 71.47 13.61 81.59 48.1 91.71z"/>
    <path fill="#B9B1E7" d="M57.5 101.59v-7.55L6.47 79.07v7.57l51.03 14.95zm20.8-73.48c0-3.33-9.33-6-20.79-6-11.46 0-20.8 2.71-20.8 6s9.33 6 20.8 6 20.79-2.67 20.79-6z"/>
    <path fill="#fff" stroke="#352157" stroke-linecap="round" stroke-linejoin="round" stroke-width="1.5" d="M91.92 30.55l-5.06 1.5-29.35 8.61v47.42c.47 0 .94-.05 1.4-.14l27.83-8.17 4.76-1.39a1.51 1.51 0 0 0 1.09-1.45V32.26c0-.63-.24-1.24-.67-1.71z"/>
    <path stroke="#352157" stroke-linecap="round" stroke-linejoin="round" stroke-width="1.5" d="M28.93 32.27l-5.84-1.72a2.53 2.53 0 0 0-.67 1.71v44.9a1.2 1.2 0 0 0 .86 1.15l4.16 1.21 6.82 2 7.81 2.29 13.49 4c.63.18 1.29.29 1.95.3V40.66l-28.58-8.39z"/>
    <path fill="#DFDBF7" stroke="#352157" stroke-linecap="round" stroke-linejoin="round" stroke-width="1.5" d="M28.93 32.27l-5.84-1.72a2.53 2.53 0 0 0-.67 1.71v44.9a1.2 1.2 0 0 0 .86 1.15l4.16 1.21 6.82 2 7.81 2.29 13.49 4c.63.18 1.29.29 1.95.3V40.66l-28.58-8.39z"/>
    <path fill="#DFDBF7" d="M64.32 46.22l9.73-2.86v3.92l-8.38 2.46a1.06 1.06 0 0 1-1.35-1v-2.52zm0 6.98l9.73-2.85v3.91l-8.38 2.46a1.05 1.05 0 0 1-1.35-1V53.2zm0 6.98l9.73-2.85v3.91l-8.38 2.46a1.05 1.05 0 0 1-1.35-1v-2.52zM77 42.53l9.73-2.85v3.91l-8.38 2.46A1.05 1.05 0 0 1 77 45v-2.47zm0 6.98l9.73-2.85v3.91L78.35 53A1.05 1.05 0 0 1 77 52v-2.49zm0 6.98l9.73-2.85v3.91L78.35 60A1.05 1.05 0 0 1 77 59v-2.51zM57.51 22.07c-11.47 0-20.8 2.71-20.8 6s9.33 6 20.8 6c5.04.08 10.07-.54 14.94-1.84-9.79-6.04-3.45-10.16-14.94-10.16z"/>
    <path stroke="#352157" stroke-linecap="round" stroke-linejoin="round" stroke-width="1.5" d="M73.4 32c3.06-1.05 4.9-2.41 4.9-3.89 0-3.33-9.33-6-20.79-6-11.46 0-20.8 2.71-20.8 6s9.33 6 20.8 6A51.9 51.9 0 0 0 73.4 32"/>
    <path fill="#fff" stroke="#352157" stroke-linecap="round" stroke-linejoin="round" stroke-width="1.5" d="M77.14 25.29c0-3.12-8.76-5.67-19.52-5.67s-19.53 2.55-19.53 5.67S46.85 31 57.62 31c10.77 0 19.52-2.58 19.52-5.71z"/>
    <path stroke="#352157" stroke-linecap="round" stroke-linejoin="round" stroke-width="1.5" d="M77 25.78l4.88 1.44 8.86 2.6c.45.13.85.39 1.16.73m-68.81 0c.35-.39.8-.67 1.31-.82l10-2.93 3.6-1.07-14.91 4.82z"/>
    <path stroke="#352157" stroke-linecap="round" stroke-linejoin="round" stroke-width="1.5" d="M92.59 39.93v-7.67a2.59 2.59 0 0 0-1.83-2.44l-8.86-2.6"/>
    <path fill="#DFDBF7" d="M51.32 46.24l-.45 2.22-22.71-6.66.45-1.87"/>
    <path stroke="#9315F6" stroke-linecap="round" stroke-linejoin="round" stroke-width="1.5" d="M51.32 76.58l-.45 2.22-22.71-6.67.45-1.87m22.71-2.35l-.45 2.22-22.71-6.67.45-1.86m22.71 10.65l-.45 2.21-22.71-6.66.45-1.87m22.71-2.35l-.45 2.22-22.71-6.67.45-1.87m22.71 1.98l-.45 2.22-22.71-6.66.45-1.87m22.71 1.98l-.45 2.22-22.71-6.67.45-1.86m22.71 1.98l-.45 2.21-22.71-6.66.45-1.87m22.71 1.98l-.45 2.22-22.71-6.66.45-1.87"/>
    <path stroke="#352157" stroke-linecap="round" stroke-linejoin="round" stroke-width="1.5" d="M53.38 39.45l2.82.83c.86.25 1.76.25 2.62 0l2.81-.83"/>
    <path fill="#B9B1E7" d="M57.51 26.48c-3.47 0-6.29-.82-6.29-1.82s2.82-1.83 6.29-1.83 6.29.82 6.29 1.83c0 1.01-2.8 1.82-6.29 1.82z"/>
    <path stroke="#9315F6" stroke-linecap="round" stroke-linejoin="round" stroke-width="1.5" d="M64.32 46.22l9.73-2.86v3.92m-9.73 5.92l9.73-2.86v3.92m-9.73 5.92l9.73-2.85v3.91M77 42.53l9.73-2.85v3.91M77 49.51l9.73-2.85v3.91M77 56.49l9.73-2.85v3.91"/>
    <path fill="#DFDBF7" d="M51.81 25.43c1.8.8 3.74 1.15 5.7 1.05 1.95.1 3.9-.26 5.69-1.05a12.25 12.25 0 0 0-5.69-1.06 12.3 12.3 0 0 0-5.7 1.06z"/>
    <path stroke="#352157" stroke-linecap="round" stroke-linejoin="round" stroke-width="1.5" d="M6.47 79.07v7.57l51.04 14.95M6.47 79.07L57.5 94.04l51.03-14.97m-102.06 0l15.95-4.86m86.11 4.86v7.57l-51.02 14.95m51.02-22.52l-15.94-4.86m-35.08 27.38v-7.55m0-67.56c-3.47 0-6.29-.82-6.29-1.82s2.82-1.83 6.29-1.83 6.29.82 6.29 1.83c0 1.01-2.8 1.82-6.29 1.82z"/>
  </g>
</svg>
