<svg xmlns="http://www.w3.org/2000/svg" viewBox="0 0 115 115" fill="none">
  <g id="kitchen">
    <path fill="#DFDBF7" d="M52.65 84h48a2.48 2.48 0 0 1 2.47 2.48v20.12C94.72 95.27 80.94 86.45 52.65 84zM34.44 47c-11.82-1.06-12.35-16.28-1-17.44 4-.72 14.81-.35 10.84 3.39-8.48 1.54-6.16 11.45.53 9.27 16.53-5.36 22.22 15.23 8.16 16-12.29.7-11.41 15.83-2.54 13 5.08-1.6 8.07 4.11 6.12 6.67H24.37c6.84-1.69 12.11-5.79 3.44-12.73-5.51-4.41-4.87-11-1.26-14.06 4.59-3.87 13.72-2.46 16.77 3.51-.2-4.7-4.57-7.22-8.88-7.61z"/>
    <path fill="#fff" d="M15.71 28.67h83.58v4.29H15.71v-4.29z"/>
    <path fill="#B9B1E7" d="M99.29 33H77.58c-8.78-3.69-40.82-4.29-40.82-4.29h62.53V33zM44.19 5.55V18.8h26.62v-2.47A53.84 53.84 0 0 1 44.19 5.55z"/>
    <path stroke="#352157" stroke-linecap="round" stroke-linejoin="round" stroke-width="1.5" d="M11.65 106.6V86.43A2.48 2.48 0 0 1 14.13 84h86.74a2.48 2.48 0 0 1 2.48 2.48v20.12"/>
    <path fill="#fff" d="M48.93 93.91a3.73 3.73 0 1 0 0-7.46 3.73 3.73 0 0 0 0 7.46zm-14.15 1a3.73 3.73 0 1 0 0-7.46 3.73 3.73 0 0 0 0 7.46z"/>
    <path fill="#B9B1E7" d="M38.33 89.8A3.72 3.72 0 0 1 35 95.09c-.54 0-1.06-.12-1.55-.35a3.72 3.72 0 1 0 4.93-4.94h-.05z"/>
    <path stroke="#352157" stroke-linecap="round" stroke-linejoin="round" stroke-width="1.5" d="M38.51 91.18a3.73 3.73 0 1 1-3.73-3.73v2.4"/>
    <path fill="#B9B1E7" d="M54.42 90.4c-.3-.27-.63-.5-1-.67a3.7 3.7 0 0 1-5 5c.17.37.4.7.67 1a3.73 3.73 0 0 0 5.28-5.27l.05-.06z"/>
    <path stroke="#352157" stroke-linecap="round" stroke-linejoin="round" stroke-width="1.5" d="M52.56 88.55a3.73 3.73 0 1 0 0 5.27l-1.69-1.69"/>
    <path fill="#fff" d="M65.07 94.91a3.73 3.73 0 1 0 0-7.46 3.73 3.73 0 0 0 0 7.46z"/>
    <path fill="#B9B1E7" d="M68.63 89.8a3.72 3.72 0 0 1-4.94 4.94 3.73 3.73 0 1 0 4.94-4.94z"/>
    <path fill="#fff" d="M80.22 94.91a3.73 3.73 0 1 0 0-7.46 3.73 3.73 0 0 0 0 7.46z"/>
    <path fill="#B9B1E7" d="M83.78 89.8a3.72 3.72 0 0 1-4.94 4.94 3.73 3.73 0 1 0 4.94-4.94z"/>
    <path stroke="#352157" stroke-linecap="round" stroke-linejoin="round" stroke-width="1.5" d="M84 91.18a3.73 3.73 0 1 1-3.73-3.73v2.4M68.8 91.18a3.73 3.73 0 1 1-3.73-3.73v2.4m-52.79 8.49h91.07M15.71 28.67h83.58v4.29H15.71v-4.29z"/>
    <path fill="#B9B1E7" d="M70.81 18.8H44.19l-28.48 9.87h83.58L70.81 18.8z"/>
    <path stroke="#352157" stroke-linecap="round" stroke-linejoin="round" stroke-width="1.5" d="M70.81 18.8H44.19l-28.48 9.87h83.58L70.81 18.8z"/>
    <path fill="#9315F6" d="M78.44 78a5.91 5.91 0 0 1-1.91 2.44c-2.25.13-6 .11-11.93.22-7.14.14-8.93 1-8.93 1l1.85-3.35L78.44 78z"/>
    <path fill="#9315F6" d="M52 83H29.4a5.52 5.52 0 0 1-5.31-4l-.09-.53a.4.4 0 0 1 .4-.52h32.7a.42.42 0 0 1 .4.52l-.14.47A5.52 5.52 0 0 1 52 83z"/>
    <path fill="#fff" d="M51.39 78.94l.13-.47a.4.4 0 0 0-.39-.52H24.35a.4.4 0 0 0-.4.52l.14.47a5.52 5.52 0 0 0 5.31 4h16.67a5.53 5.53 0 0 0 5.32-4z"/>
    <path stroke="#352157" stroke-linecap="round" stroke-linejoin="round" stroke-width="1.5" d="M57.52 78H24.35a.41.41 0 0 0-.4.52l.14.47a5.52 5.52 0 0 0 5.31 4H52a5.52 5.52 0 0 0 5.32-4l.14-.47 21-.52a3.87 3.87 0 0 1-1.91 2.44M44.19 5.55V18.8h26.62v-7.09m-52.1 94.85v-1a1.92 1.92 0 0 1 1.92-1.92h66.85m8.85 2.96v-1a1.92 1.92 0 0 0-1.92-1.92h-6.93"/>
  </g>
</svg>
