<svg xmlns="http://www.w3.org/2000/svg" viewBox="0 0 115 115" fill="none">
  <g id="restoration">
    <path fill="#DFDBF7" d="M25 30h65v60H25V30z"/>
    <path fill="#fff" d="M30 35h55v50H30V35z"/>
    <path stroke="#352157" stroke-width="1.5" d="M30 35h55v50H30V35z"/>
    <path fill="#9315F6" d="M57.5 15l20 15H37.5l20-15z"/>
    <path stroke="#352157" stroke-width="1.5" d="M57.5 15l20 15H37.5l20-15z"/>
    <circle cx="50" cy="55" r="8" fill="#B9B1E7"/>
    <path d="M45 50l5 8 8-12" stroke="#9315F6" stroke-width="2" fill="none"/>
    <rect x="65" y="50" width="15" height="15" fill="#DFDBF7" stroke="#352157" stroke-width="1"/>
    <path d="M67 52h11v2h-11v-2zm0 4h11v2h-11v-2zm0 4h11v2h-11v-2zm0 4h8v2h-8v-2z" fill="#352157"/>
    <path d="M35 70h15v15H35V70z" fill="#EFECFF" stroke="#352157" stroke-width="1"/>
    <path d="M40 45c0-3 2-5 5-5s5 2 5 5" stroke="#352157" stroke-width="2" fill="none"/>
    <circle cx="45" cy="45" r="2" fill="#9315F6"/>
    <path d="M30 95h55v5H30v-5z" fill="#352157"/>
  </g>
</svg>
