<svg xmlns="http://www.w3.org/2000/svg" viewBox="0 0 115 115" fill="none">
  <g id="roofing">
    <path fill="#DFDBF7" d="M4.19 70.45l1.69 4.27h46.1l-1.03-5.43-.75 1.16H4.19z"/>
    <path fill="#B9B1E7" d="M51.25 78.85H8.48l-.76-3.88h42.77l.76 3.88z"/>
    <path fill="#EFECFF" d="M80.92 22.72h-46.7L3.5 70.45h46.7l30.72-47.73z"/>
    <path fill="#DFDBF7" d="M107.11 74.94l-27.68-43 1.73-2.76 29.45 45.76h-3.5z"/>
    <path stroke="#352157" stroke-linecap="round" stroke-linejoin="round" stroke-width="1.5" d="M112.29 71.09L81.16 22.72"/>
    <path fill="#9315F6" d="M107.11 74.94l-27.68-43-3.42 5.35 31.1 46.18v-8.53z" style="mix-blend-mode:multiply"/>
    <path stroke="#352157" stroke-linecap="round" stroke-linejoin="round" stroke-width="1.5" d="M5.88 74.72h46.1l29.18-45.54 23.87 37.09"/>
    <path fill="#EFECFF" stroke="#352157" stroke-linecap="round" stroke-linejoin="round" stroke-width="1.5" d="M41.68 35.01h-6.59l3.27-5.15h6.6l-3.28 5.15z"/>
    <path fill="#EFECFF" d="M48.28 35.01h-6.6l3.28-5.15h6.59l-3.27 5.15zm14.95-2.57l1.64-2.58h-.13l-1.51 2.58zm-31.44 2.57h6.59l-3.27 5.14h-6.59"/>
    <path stroke="#352157" stroke-linecap="round" stroke-linejoin="round" stroke-width="1.5" d="M48.28 35.01h-6.6l3.28-5.15h6.59m-3.27 5.15l3.27-5.15m-3.27 5.15h5.87m-2.6-5.15h6.6l-1.66 2.61M29.63 43.58l2.18-3.43H45m-13.21-5.14h6.59l-3.27 5.14h-6.59m34.71-7.71l1.64-2.58h-.13l-1.51 2.58z"/>
    <path fill="#EFECFF" d="M41.7 40.15h-6.59l3.27-5.14h6.6l-3.28 5.14zm7.71-1.74l2.16-3.4-2.16 3.4zM43.3 27.29l-1.64 2.57h-6.59l1.63-2.57"/>
    <path stroke="#352157" stroke-linecap="round" stroke-linejoin="round" stroke-width="1.5" d="M43.3 27.29l-1.64 2.57h-6.59l1.63-2.57m5 12.86h-6.59l3.27-5.14h6.6l-3.28 5.14zm7.71-1.74l2.16-3.4-2.16 3.4z"/>
    <path fill="#EFECFF" d="M56.49 27.29l-1.64 2.57h-6.59l1.63-2.57"/>
    <path stroke="#352157" stroke-linecap="round" stroke-linejoin="round" stroke-width="1.5" d="M49.89 27.29l-1.63 2.57m0 0h-6.6l2.59-4.07m4.01 4.07h6.59l1.64-2.57"/>
    <path fill="#EFECFF" d="M48.6 50.6l-1.87 2.95h-6.54"/>
    <path stroke="#352157" stroke-linecap="round" stroke-linejoin="round" stroke-width="1.5" d="M63.08 27.29l-1.63 2.57h-6.6l2.59-4.07M39.2 40.15l-1.63 2.57m-3.6-12.86h34.62M48.6 50.6l-1.87 2.95h-6.54"/>
    <path fill="#EFECFF" d="M30.39 58.65l-3.25 5.1H20.6"/>
    <path stroke="#352157" stroke-linecap="round" stroke-linejoin="round" stroke-width="1.5" d="M56.19 48.96l-2.92 4.59h-6.54l1.87-2.95m-18.21 8.05l-3.25 5.1H20.6"/>
    <path fill="#EFECFF" stroke="#352157" stroke-linecap="round" stroke-linejoin="round" stroke-width="1.5" d="M33.69 63.75h-7.01l3.25-5.1h7.01l-3.25 5.1z"/>
    <path fill="#EFECFF" d="M40.23 63.75h-6.54l3.25-5.1h6.54l-3.25 5.1zm6.54 0h-6.54l3.25-5.1h6.54l-3.25 5.1zm-3.31-10.2l-3.25 5.1h-6.55"/>
    <path stroke="#352157" stroke-linecap="round" stroke-linejoin="round" stroke-width="1.5" d="M43.46 53.55l-3.25 5.1h-6.55m6.57 5.1h-6.54l3.25-5.1h6.54l-3.25 5.1zm6.54 0h-6.54l3.25-5.1h6.54l-3.25 5.1z"/>
    <path fill="#EFECFF" d="M46.75 58.65h-6.54l3.25-5.1H50l-3.25 5.1zm-11.4 7.62l1.63-2.55h-6.55l-1.62 2.55"/>
    <path stroke="#352157" stroke-linecap="round" stroke-linejoin="round" stroke-width="1.5" d="M22.26 66.27l1.63-2.55m0 0h-3.63l1.61-2.52m2.02 2.52h6.54m-6.54 0l-2.57 4.04m7.49-1.49l1.62-2.55m0 0h6.55l-1.63 2.55m11.4-7.62h-6.54l3.25-5.1H50l-3.25 5.1z"/>
    <path fill="#EFECFF" d="M50.02 58.65h2.46-2.46z"/>
    <path stroke="#352157" stroke-linecap="round" stroke-linejoin="round" stroke-width="1.5" d="M41.9 66.27l1.62-2.55h-6.54l-2.58 4.04m-17.08-4.01h33.27m-23.91-5.1h6.21l1.51-2.55m15.62 2.55h2.46"/>
    <path stroke="#352157" stroke-linecap="round" stroke-linejoin="round" stroke-width="1.5" d="M79.43 31.94l27.68 43M80.92 22.72h-46.7L3.5 70.45h46.7l30.72-47.73zM7.72 74.97v14.84-14.84zm42.87 0v21.66-21.66z"/>
    <path fill="#B9B1E7" d="M27.11 84h-9.12v6.25l9.12 1.57V84zm1.58 0v7.93l9.87 1.7V84h-9.87z"/>
    <path stroke="#352157" stroke-linecap="round" stroke-linejoin="round" stroke-width="1.5" d="M107.11 89.81V74.97l3.5-.03-5.58-8.67"/>
    <path fill="#B9B1E7" d="M71.6 81.22v15.41l14.69-2.16V81.22H71.6z"/>
    <path fill="#DFDBF7" d="M83.53 81.22v13.66l2.76-.41V81.22h-2.76z"/>
    <path fill="#B9B1E7" d="M79.58 60.08h6.06c-.17-4.19-2.77-7.56-6.06-7.95v7.95zm-1.26 0v-7.95c-3.3.39-5.89 3.76-6.07 7.95h6.07zm1.26 1.27v7.59c3.19-.38 5.74-3.57 6-7.59h-6zm-1.26 0h-6.06c.31 4 2.86 7.21 6.06 7.59v-7.59z"/>
    <path fill="#DFDBF7" d="M79.58 52.13v.81a8.76 8.76 0 0 1 3.76 7.14h2.3c-.17-4.19-2.77-7.56-6.06-7.95zm3.74 9.22a8.62 8.62 0 0 1-3.74 6.77v.82c3.19-.38 5.74-3.57 6-7.59h-2.26z"/>
  </g>
</svg>
