<svg xmlns="http://www.w3.org/2000/svg" viewBox="0 0 115 115" fill="none">
  <g id="tree-services">
    <circle cx="57.5" cy="40" r="25" fill="#B9B1E7"/>
    <circle cx="57.5" cy="40" r="20" fill="#9315F6"/>
    <circle cx="50" cy="35" r="8" fill="#B9B1E7"/>
    <circle cx="65" cy="35" r="8" fill="#B9B1E7"/>
    <circle cx="57.5" cy="25" r="10" fill="#B9B1E7"/>
    <rect x="52.5" y="65" width="10" height="25" fill="#352157"/>
    <rect x="54" y="67" width="7" height="21" fill="#9315F6"/>
    <path d="M40 75c5-3 10 3 15-2s8 5 15 0c7-5 12 2 17-1" stroke="#B9B1E7" stroke-width="2" fill="none"/>
    <path d="M35 80c5-2 8 2 12-1s6 3 10 0 6 2 10-1s8 1 12 0" stroke="#DFDBF7" stroke-width="2" fill="none"/>
    <circle cx="45" cy="30" r="3" fill="#DFDBF7"/>
    <circle cx="70" cy="30" r="3" fill="#DFDBF7"/>
    <circle cx="57.5" cy="18" r="3" fill="#DFDBF7"/>
    <path d="M20 90h75v8H20v-8z" fill="#352157"/>
    <path d="M25 88h65v2H25v-2z" fill="#B9B1E7"/>
  </g>
</svg>
