<svg xmlns="http://www.w3.org/2000/svg" viewBox="0 0 115 115" fill="none">
  <g id="windows">
    <path fill="#9315F6" d="M105.5 101.74H14.32l-3.57-7.14h91.18v-5.64l3.57 8.18v4.6z" style="mix-blend-mode:multiply"/>
    <path fill="#B9B1E7" d="M93.57 88.96H19.02V14.51h74.55v74.45z"/>
    <path fill="#352157" fill-rule="evenodd" d="M18.32 14.51c0-.39.31-.7.7-.7h74.55c.39 0 .7.31.7.7v74.45h-.7v.7H19.02a.7.7 0 0 1-.7-.7V14.51zm74.54 73.74V15.22H19.73v73.03h73.13z" clip-rule="evenodd"/>
    <path fill="#fff" d="M33.03 46.38h10.15v2.91H53.8V19.4H23.91v29.9h9.12v-2.92zm34.78 0h10.15v2.91h10.72V19.4h-29.9v29.9h9.03v-2.92zm20.87 7.8h-29.9v29.9h29.9v-29.9zm-34.88 0H23.91v29.9h29.9v-29.9z"/>
    <path fill="#352157" fill-rule="evenodd" d="M58.08 54.18c0-.39.32-.7.7-.7h29.9a.7.7 0 1 1 0 1.4H59.49v29.2a.7.7 0 0 1-1.4 0v-29.9zm-34.88 0c0-.39.32-.7.71-.7h29.9a.7.7 0 0 1 0 1.4H24.6v29.2a.7.7 0 0 1-1.4 0v-29.9zm0-34.78c0-.39.32-.7.71-.7h29.9a.7.7 0 0 1 0 1.4H24.6v28.5h7.72v-2.21c0-.4.31-.7.7-.7h10.15a.7.7 0 1 1 0 1.4h-9.45v2.21a.7.7 0 0 1-.7.7H23.9a.7.7 0 0 1-.7-.7V19.4zm34.88 0c0-.39.32-.7.7-.7h29.9a.7.7 0 1 1 0 1.4H59.49v28.5h7.62v-2.21c0-.4.31-.7.7-.7h10.15a.7.7 0 1 1 0 1.4h-9.44v2.21a.7.7 0 0 1-.71.7h-9.02a.7.7 0 0 1-.7-.7V19.4z" clip-rule="evenodd"/>
    <path fill="#352157" fill-rule="evenodd" d="M18.32 49.3c0-.4.31-.71.7-.71h74.55a.7.7 0 0 1 0 1.4H19.02a.7.7 0 0 1-.7-.7z" clip-rule="evenodd"/>
    <path fill="#B9B1E7" fill-rule="evenodd" d="M68.44 24.63a.7.7 0 0 0 0 1l10.34 10.43a.7.7 0 1 0 1-.99L69.44 24.64a.7.7 0 0 0-1 0zm-.75 8.09a.7.7 0 0 0 0 1l7.99 7.99a.7.7 0 1 0 1-1l-8-7.99a.7.7 0 0 0-1 0zM31.97 60.26a.7.7 0 0 0 0 1L42.4 71.69a.7.7 0 0 0 1-1L32.96 60.27a.7.7 0 0 0-1 0zm-.75 8.09a.7.7 0 0 0 0 1l7.99 7.98a.7.7 0 1 0 1-1l-8-7.98a.7.7 0 0 0-1 0z" clip-rule="evenodd"/>
    <path fill="#352157" fill-rule="evenodd" d="M10.05 88.96c0-.39.31-.7.7-.7h91.18c.4 0 .7.31.7.7v5.64a.7.7 0 0 1-.7.7H30.5a.7.7 0 1 1 0-1.4h70.74v-4.23H11.46v4.93a.7.7 0 1 1-1.41 0v-5.64z" clip-rule="evenodd"/>
  </g>
</svg>
